<svg width="50" height="50" viewBox="0 0 50 50" fill="none" xmlns="http://www.w3.org/2000/svg">
<path d="M41.8642 2.82843C40.3021 1.26633 37.7695 1.26633 36.2074 2.82843L27.8595 11.1763C26.3005 12.7353 23.7738 12.7388 22.2105 11.1841L13.7926 2.81278C12.2293 1.25806 9.70267 1.26156 8.14363 2.8206L2.8206 8.14363C1.26157 9.70267 1.25806 12.2293 2.81278 13.7926L11.1841 22.2105C12.7388 23.7738 12.7353 26.3005 11.1763 27.8595L2.82843 36.2074C1.26633 37.7695 1.26633 40.3021 2.82843 41.8642L8.14364 47.1794C9.70268 48.7384 12.2293 48.7419 13.7926 47.1872L22.2105 38.8159C23.7738 37.2612 26.3005 37.2647 27.8595 38.8237L36.2074 47.1716C37.7695 48.7337 40.3021 48.7337 41.8642 47.1716L47.1716 41.8642C48.7337 40.3021 48.7337 37.7695 47.1716 36.2074L38.8237 27.8595C37.2647 26.3005 37.2612 23.7738 38.8159 22.2105L47.1872 13.7926C48.7419 12.2293 48.7384 9.70267 47.1794 8.14363L41.8642 2.82843Z" fill="#FD1874"/>
</svg>
