<svg width="251" height="55" viewBox="0 0 251 55" fill="none" xmlns="http://www.w3.org/2000/svg">
<path d="M58 51L75.1005 33.8995C80.5678 28.4322 89.4322 28.4322 94.8995 33.8995L102.101 41.1005C107.568 46.5678 116.432 46.5678 121.899 41.1005L129.101 33.8995C134.568 28.4322 143.432 28.4322 148.899 33.8995L156.101 41.1005C161.568 46.5678 170.432 46.5678 175.899 41.1005L183.101 33.8995C188.568 28.4322 197.432 28.4322 202.899 33.8995L210.101 41.1005C215.568 46.5678 224.432 46.5678 229.899 41.1005L247 24" stroke="#FAFAFA" stroke-width="7" stroke-linecap="round"/>
<path d="M4 31L21.1005 13.8995C26.5678 8.43216 35.4322 8.43215 40.8995 13.8995L48.1005 21.1005C53.5678 26.5678 62.4322 26.5678 67.8995 21.1005L75.1005 13.8995C80.5678 8.43216 89.4322 8.43215 94.8995 13.8995L102.101 21.1005C107.568 26.5678 116.432 26.5678 121.899 21.1005L129.101 13.8995C134.568 8.43216 143.432 8.43215 148.899 13.8995L156.101 21.1005C161.568 26.5678 170.432 26.5678 175.899 21.1005L193 4" stroke="#FAFAFA" stroke-width="7" stroke-linecap="round"/>
</svg>
