<svg width="489" height="347" viewBox="0 0 489 347" fill="none" xmlns="http://www.w3.org/2000/svg">
<path d="M312.162 16.7461L305.058 9.6416L312.162 2.53705C312.839 1.86043 312.839 1.18384 312.162 0.507222C311.486 -0.169399 310.809 -0.169399 310.133 0.507222L303.028 7.61171L295.924 0.507222C295.247 -0.169399 294.57 -0.169399 293.894 0.507222C293.217 1.18384 293.217 1.86043 293.894 2.53705L300.998 9.6416L293.894 16.7461C293.217 17.4228 293.217 18.0994 293.894 18.776C294.57 19.4526 295.247 19.4526 295.924 18.776L303.028 11.6715L310.133 18.776C310.809 19.4526 311.486 19.4526 312.162 18.776C312.839 18.4377 312.839 17.4228 312.162 16.7461Z" fill="#FAFAFA"/>
<path d="M194.776 16.7461L187.672 9.6416L194.776 2.53705C195.453 1.86043 195.453 1.18384 194.776 0.507222C194.1 -0.169399 193.423 -0.169399 192.746 0.507222L185.642 7.61171L178.537 0.507222C177.861 -0.169399 177.184 -0.169399 176.507 0.507222C175.831 1.18384 175.831 1.86043 176.507 2.53705L183.612 9.6416L176.507 16.7461C175.831 17.4228 175.831 18.0994 176.507 18.776C177.184 19.4526 177.861 19.4526 178.537 18.776L185.642 11.6715L192.746 18.776C193.423 19.4526 194.1 19.4526 194.776 18.776C195.453 18.4377 195.453 17.4228 194.776 16.7461Z" fill="#FAFAFA"/>
<path d="M77.7762 16.7461L70.6717 9.6416L77.7762 2.53705C78.4528 1.86043 78.4528 1.18384 77.7762 0.507222C77.0996 -0.169399 76.423 -0.169399 75.7463 0.507222L68.6418 7.61171L61.5373 0.507222C60.8607 -0.169399 60.1841 -0.169399 59.5075 0.507222C58.8308 1.18384 58.8308 1.86043 59.5075 2.53705L66.612 9.6416L59.5075 16.7461C58.8308 17.4228 58.8308 18.0994 59.5075 18.776C60.1841 19.4526 60.8607 19.4526 61.5373 18.776L68.6418 11.6715L75.7463 18.776C76.423 19.4526 77.0996 19.4526 77.7762 18.776C78.4528 18.4377 78.4528 17.4228 77.7762 16.7461Z" fill="#FAFAFA"/>
<path d="M370.69 16.7461L363.585 9.6416L370.69 2.53705C371.366 1.86043 371.366 1.18384 370.69 0.507222C370.013 -0.169399 369.336 -0.169399 368.66 0.507222L361.555 7.61171L354.451 0.507222C353.774 -0.169399 353.097 -0.169399 352.421 0.507222C351.744 1.18384 351.744 1.86043 352.421 2.53705L359.525 9.6416L352.421 16.7461C351.744 17.4228 351.744 18.0994 352.421 18.776C353.097 19.4526 353.774 19.4526 354.451 18.776L361.555 11.6715L368.66 18.776C369.336 19.4526 370.013 19.4526 370.69 18.776C371.366 18.4377 371.366 17.4228 370.69 16.7461Z" fill="#FAFAFA"/>
<path d="M253.303 16.7461L246.199 9.6416L253.303 2.53705C253.98 1.86043 253.98 1.18384 253.303 0.507222C252.627 -0.169399 251.95 -0.169399 251.274 0.507222L244.169 7.61171L237.064 0.507222C236.388 -0.169399 235.711 -0.169399 235.035 0.507222C234.358 1.18384 234.358 1.86043 235.035 2.53705L242.139 9.6416L235.035 16.7461C234.358 17.4228 234.358 18.0994 235.035 18.776C235.711 19.4526 236.388 19.4526 237.064 18.776L244.169 11.6715L251.274 18.776C251.95 19.4526 252.627 19.4526 253.303 18.776C253.98 18.4377 253.98 17.4228 253.303 16.7461Z" fill="#FAFAFA"/>
<path d="M136.303 16.7461L129.199 9.6416L136.303 2.53705C136.98 1.86043 136.98 1.18384 136.303 0.507222C135.627 -0.169399 134.95 -0.169399 134.274 0.507222L127.169 7.61171L120.064 0.507222C119.388 -0.169399 118.711 -0.169399 118.035 0.507222C117.358 1.18384 117.358 1.86043 118.035 2.53705L125.139 9.6416L118.035 16.7461C117.358 17.4228 117.358 18.0994 118.035 18.776C118.711 19.4526 119.388 19.4526 120.064 18.776L127.169 11.6715L134.274 18.776C134.95 19.4526 135.627 19.4526 136.303 18.776C136.98 18.4377 136.98 17.4228 136.303 16.7461Z" fill="#FAFAFA"/>
<path d="M19.3033 16.7461L12.1989 9.6416L19.3033 2.53705C19.9799 1.86043 19.9799 1.18384 19.3033 0.507222C18.6267 -0.169399 17.9502 -0.169399 17.2735 0.507222L10.169 7.61171L3.06445 0.507222C2.38783 -0.169399 1.71119 -0.169399 1.03457 0.507222C0.357944 1.18384 0.357944 1.86043 1.03457 2.53705L8.13911 9.6416L1.03457 16.7461C0.357944 17.4228 0.357944 18.0994 1.03457 18.776C1.71119 19.4526 2.38783 19.4526 3.06445 18.776L10.169 11.6715L17.2735 18.776C17.9502 19.4526 18.6267 19.4526 19.3033 18.776C19.9799 18.4377 19.9799 17.4228 19.3033 16.7461Z" fill="#FAFAFA"/>
<path d="M429.555 16.7461L422.451 9.6416L429.555 2.53705C430.232 1.86043 430.232 1.18384 429.555 0.507222C428.879 -0.169399 428.202 -0.169399 427.525 0.507222L420.421 7.61171L413.316 0.507222C412.64 -0.169399 411.963 -0.169399 411.287 0.507222C410.61 1.18384 410.61 1.86043 411.287 2.53705L418.391 9.6416L411.287 16.7461C410.61 17.4228 410.61 18.0994 411.287 18.776C411.963 19.4526 412.64 19.4526 413.316 18.776L420.421 11.6715L427.525 18.776C428.202 19.4526 428.879 19.4526 429.555 18.776C430.232 18.4377 430.232 17.4228 429.555 16.7461Z" fill="#FAFAFA"/>
<path d="M488.421 16.7461L481.317 9.6416L488.421 2.53705C489.098 1.86043 489.098 1.18384 488.421 0.507222C487.745 -0.169399 487.068 -0.169399 486.392 0.507222L479.287 7.61171L472.183 0.507222C471.506 -0.169399 470.829 -0.169399 470.153 0.507222C469.476 1.18384 469.476 1.86043 470.153 2.53705L477.257 9.6416L470.153 16.7461C469.476 17.4228 469.476 18.0994 470.153 18.776C470.829 19.4526 471.506 19.4526 472.183 18.776L479.287 11.6715L486.392 18.776C487.068 19.4526 487.745 19.4526 488.421 18.776C489.098 18.0994 489.098 17.4228 488.421 16.7461Z" fill="#FAFAFA"/>
<path d="M312.162 63.7713L305.058 56.6667L312.162 49.5623C312.839 48.8856 312.839 48.209 312.162 47.5324C311.486 46.8557 310.809 46.8557 310.133 47.5324L303.028 54.6369L295.924 47.5324C295.247 46.8557 294.57 46.8557 293.894 47.5324C293.217 48.209 293.217 48.8856 293.894 49.5623L300.998 56.6667L293.894 63.7713C293.217 64.4479 293.217 65.1245 293.894 65.8012C294.57 66.4778 295.247 66.4778 295.924 65.8012L303.028 58.6966L310.133 65.8012C310.809 66.4778 311.486 66.4778 312.162 65.8012C312.839 65.1245 312.839 64.1096 312.162 63.7713Z" fill="#FAFAFA"/>
<path d="M194.776 63.7713L187.672 56.6667L194.776 49.5623C195.453 48.8856 195.453 48.209 194.776 47.5324C194.1 46.8557 193.423 46.8557 192.746 47.5324L185.642 54.6369L178.537 47.5324C177.861 46.8557 177.184 46.8557 176.507 47.5324C175.831 48.209 175.831 48.8856 176.507 49.5623L183.612 56.6667L176.507 63.7713C175.831 64.4479 175.831 65.1245 176.507 65.8012C177.184 66.4778 177.861 66.4778 178.537 65.8012L185.642 58.6966L192.746 65.8012C193.423 66.4778 194.1 66.4778 194.776 65.8012C195.453 65.1245 195.453 64.1096 194.776 63.7713Z" fill="#FAFAFA"/>
<path d="M77.7762 63.7713L70.6717 56.6667L77.7762 49.5623C78.4528 48.8856 78.4528 48.209 77.7762 47.5324C77.0996 46.8557 76.423 46.8557 75.7463 47.5324L68.6418 54.6369L61.5373 47.5324C60.8607 46.8557 60.1841 46.8557 59.5075 47.5324C58.8308 48.209 58.8308 48.8856 59.5075 49.5623L66.612 56.6667L59.5075 63.7713C58.8308 64.4479 58.8308 65.1245 59.5075 65.8012C60.1841 66.4778 60.8607 66.4778 61.5373 65.8012L68.6418 58.6966L75.7463 65.8012C76.423 66.4778 77.0996 66.4778 77.7762 65.8012C78.4528 65.1245 78.4528 64.1096 77.7762 63.7713Z" fill="#FAFAFA"/>
<path d="M370.69 63.7713L363.585 56.6667L370.69 49.5623C371.366 48.8856 371.366 48.209 370.69 47.5324C370.013 46.8557 369.336 46.8557 368.66 47.5324L361.555 54.6369L354.451 47.5324C353.774 46.8557 353.097 46.8557 352.421 47.5324C351.744 48.209 351.744 48.8856 352.421 49.5623L359.525 56.6667L352.421 63.7713C351.744 64.4479 351.744 65.1245 352.421 65.8012C353.097 66.4778 353.774 66.4778 354.451 65.8012L361.555 58.6966L368.66 65.8012C369.336 66.4778 370.013 66.4778 370.69 65.8012C371.366 65.1245 371.366 64.1096 370.69 63.7713Z" fill="#FAFAFA"/>
<path d="M253.303 63.7713L246.199 56.6667L253.303 49.5623C253.98 48.8856 253.98 48.209 253.303 47.5324C252.627 46.8557 251.95 46.8557 251.274 47.5324L244.169 54.6369L237.064 47.5324C236.388 46.8557 235.711 46.8557 235.035 47.5324C234.358 48.209 234.358 48.8856 235.035 49.5623L242.139 56.6667L235.035 63.7713C234.358 64.4479 234.358 65.1245 235.035 65.8012C235.711 66.4778 236.388 66.4778 237.064 65.8012L244.169 58.6966L251.274 65.8012C251.95 66.4778 252.627 66.4778 253.303 65.8012C253.98 65.1245 253.98 64.1096 253.303 63.7713Z" fill="#FAFAFA"/>
<path d="M136.303 63.7713L129.199 56.6667L136.303 49.5623C136.98 48.8856 136.98 48.209 136.303 47.5324C135.627 46.8557 134.95 46.8557 134.274 47.5324L127.169 54.6369L120.064 47.5324C119.388 46.8557 118.711 46.8557 118.035 47.5324C117.358 48.209 117.358 48.8856 118.035 49.5623L125.139 56.6667L118.035 63.7713C117.358 64.4479 117.358 65.1245 118.035 65.8012C118.711 66.4778 119.388 66.4778 120.064 65.8012L127.169 58.6966L134.274 65.8012C134.95 66.4778 135.627 66.4778 136.303 65.8012C136.98 65.1245 136.98 64.1096 136.303 63.7713Z" fill="#FAFAFA"/>
<path d="M19.3033 63.7713L12.1989 56.6667L19.3033 49.5623C19.9799 48.8856 19.9799 48.209 19.3033 47.5324C18.6267 46.8557 17.9502 46.8557 17.2735 47.5324L10.169 54.6369L3.06445 47.5324C2.38783 46.8557 1.71119 46.8557 1.03457 47.5324C0.357944 48.209 0.357944 48.8856 1.03457 49.5623L8.13911 56.6667L1.03457 63.7713C0.357944 64.4479 0.357944 65.1245 1.03457 65.8012C1.71119 66.4778 2.38783 66.4778 3.06445 65.8012L10.169 58.6966L17.2735 65.8012C17.9502 66.4778 18.6267 66.4778 19.3033 65.8012C19.9799 65.1245 19.9799 64.1096 19.3033 63.7713Z" fill="#FAFAFA"/>
<path d="M429.555 63.7713L422.451 56.6667L429.555 49.5623C430.232 48.8856 430.232 48.209 429.555 47.5324C428.879 46.8557 428.202 46.8557 427.525 47.5324L420.421 54.6369L413.316 47.5324C412.64 46.8557 411.963 46.8557 411.287 47.5324C410.61 48.209 410.61 48.8856 411.287 49.5623L418.391 56.6667L411.287 63.7713C410.61 64.4479 410.61 65.1245 411.287 65.8012C411.963 66.4778 412.64 66.4778 413.316 65.8012L420.421 58.6966L427.525 65.8012C428.202 66.4778 428.879 66.4778 429.555 65.8012C430.232 65.1245 430.232 64.1096 429.555 63.7713Z" fill="#FAFAFA"/>
<path d="M488.421 63.7713L481.317 56.6667L488.421 49.5623C489.098 48.8856 489.098 48.209 488.421 47.5324C487.745 46.8557 487.068 46.8557 486.392 47.5324L479.287 54.6369L472.183 47.5324C471.506 46.8557 470.829 46.8557 470.153 47.5324C469.476 48.209 469.476 48.8856 470.153 49.5623L477.257 56.6667L470.153 63.7713C469.476 64.4479 469.476 65.1245 470.153 65.8012C470.829 66.4778 471.506 66.4778 472.183 65.8012L479.287 58.6966L486.392 65.8012C487.068 66.4778 487.745 66.4778 488.421 65.8012C489.098 65.1245 489.098 64.1096 488.421 63.7713Z" fill="#FAFAFA"/>
<path d="M312.162 110.458L305.058 103.354L312.162 96.249C312.839 95.5724 312.839 94.8958 312.162 94.2191C311.486 93.5425 310.809 93.5425 310.133 94.2191L303.028 101.324L295.924 94.2191C295.247 93.5425 294.57 93.5425 293.894 94.2191C293.217 94.8958 293.217 95.5724 293.894 96.249L300.998 103.354L293.894 110.458C293.217 111.135 293.217 111.811 293.894 112.488C294.57 113.165 295.247 113.165 295.924 112.488L303.028 105.383L310.133 112.488C310.809 113.165 311.486 113.165 312.162 112.488C312.839 112.15 312.839 111.135 312.162 110.458Z" fill="#FAFAFA"/>
<path d="M194.776 110.458L187.672 103.354L194.776 96.249C195.453 95.5724 195.453 94.8958 194.776 94.2191C194.1 93.5425 193.423 93.5425 192.746 94.2191L185.642 101.324L178.537 94.2191C177.861 93.5425 177.184 93.5425 176.507 94.2191C175.831 94.8958 175.831 95.5724 176.507 96.249L183.612 103.354L176.507 110.458C175.831 111.135 175.831 111.811 176.507 112.488C177.184 113.165 177.861 113.165 178.537 112.488L185.642 105.383L192.746 112.488C193.423 113.165 194.1 113.165 194.776 112.488C195.453 112.15 195.453 111.135 194.776 110.458Z" fill="#FAFAFA"/>
<path d="M77.7762 110.458L70.6717 103.354L77.7762 96.249C78.4528 95.5724 78.4528 94.8958 77.7762 94.2191C77.0996 93.5425 76.423 93.5425 75.7463 94.2191L68.6418 101.324L61.5373 94.2191C60.8607 93.5425 60.1841 93.5425 59.5075 94.2191C58.8308 94.8958 58.8308 95.5724 59.5075 96.249L66.612 103.354L59.5075 110.458C58.8308 111.135 58.8308 111.811 59.5075 112.488C60.1841 113.165 60.8607 113.165 61.5373 112.488L68.6418 105.383L75.7463 112.488C76.423 113.165 77.0996 113.165 77.7762 112.488C78.4528 112.15 78.4528 111.135 77.7762 110.458Z" fill="#FAFAFA"/>
<path d="M370.69 110.458L363.585 103.354L370.69 96.249C371.366 95.5724 371.366 94.8958 370.69 94.2191C370.013 93.5425 369.336 93.5425 368.66 94.2191L361.555 101.324L354.451 94.2191C353.774 93.5425 353.097 93.5425 352.421 94.2191C351.744 94.8958 351.744 95.5724 352.421 96.249L359.525 103.354L352.421 110.458C351.744 111.135 351.744 111.811 352.421 112.488C353.097 113.165 353.774 113.165 354.451 112.488L361.555 105.383L368.66 112.488C369.336 113.165 370.013 113.165 370.69 112.488C371.366 112.15 371.366 111.135 370.69 110.458Z" fill="#FAFAFA"/>
<path d="M253.303 110.458L246.199 103.354L253.303 96.249C253.98 95.5724 253.98 94.8958 253.303 94.2191C252.627 93.5425 251.95 93.5425 251.274 94.2191L244.169 101.324L237.064 94.2191C236.388 93.5425 235.711 93.5425 235.035 94.2191C234.358 94.8958 234.358 95.5724 235.035 96.249L242.139 103.354L235.035 110.458C234.358 111.135 234.358 111.811 235.035 112.488C235.711 113.165 236.388 113.165 237.064 112.488L244.169 105.383L251.274 112.488C251.95 113.165 252.627 113.165 253.303 112.488C253.98 112.15 253.98 111.135 253.303 110.458Z" fill="#FAFAFA"/>
<path d="M136.303 110.458L129.199 103.354L136.303 96.249C136.98 95.5724 136.98 94.8958 136.303 94.2191C135.627 93.5425 134.95 93.5425 134.274 94.2191L127.169 101.324L120.064 94.2191C119.388 93.5425 118.711 93.5425 118.035 94.2191C117.358 94.8958 117.358 95.5724 118.035 96.249L125.139 103.354L118.035 110.458C117.358 111.135 117.358 111.811 118.035 112.488C118.711 113.165 119.388 113.165 120.064 112.488L127.169 105.383L134.274 112.488C134.95 113.165 135.627 113.165 136.303 112.488C136.98 112.15 136.98 111.135 136.303 110.458Z" fill="#FAFAFA"/>
<path d="M19.3033 110.458L12.1989 103.354L19.3033 96.249C19.9799 95.5724 19.9799 94.8958 19.3033 94.2191C18.6267 93.5425 17.9502 93.5425 17.2735 94.2191L10.169 101.324L3.06445 94.2191C2.38783 93.5425 1.71119 93.5425 1.03457 94.2191C0.357944 94.8958 0.357944 95.5724 1.03457 96.249L8.13911 103.354L1.03457 110.458C0.357944 111.135 0.357944 111.811 1.03457 112.488C1.71119 113.165 2.38783 113.165 3.06445 112.488L10.169 105.383L17.2735 112.488C17.9502 113.165 18.6267 113.165 19.3033 112.488C19.9799 112.15 19.9799 111.135 19.3033 110.458Z" fill="#FAFAFA"/>
<path d="M429.555 110.458L422.451 103.354L429.555 96.249C430.232 95.5724 430.232 94.8958 429.555 94.2191C428.879 93.5425 428.202 93.5425 427.525 94.2191L420.421 101.324L413.316 94.2191C412.64 93.5425 411.963 93.5425 411.287 94.2191C410.61 94.8958 410.61 95.5724 411.287 96.249L418.391 103.354L411.287 110.458C410.61 111.135 410.61 111.811 411.287 112.488C411.963 113.165 412.64 113.165 413.316 112.488L420.421 105.383L427.525 112.488C428.202 113.165 428.879 113.165 429.555 112.488C430.232 112.15 430.232 111.135 429.555 110.458Z" fill="#FAFAFA"/>
<path d="M488.421 110.458L481.317 103.354L488.421 96.249C489.098 95.5724 489.098 94.8958 488.421 94.2191C487.745 93.5425 487.068 93.5425 486.392 94.2191L479.287 101.324L472.183 94.2191C471.506 93.5425 470.829 93.5425 470.153 94.2191C469.476 94.8958 469.476 95.5724 470.153 96.249L477.257 103.354L470.153 110.458C469.476 111.135 469.476 111.811 470.153 112.488C470.829 113.165 471.506 113.165 472.183 112.488L479.287 105.383L486.392 112.488C487.068 113.165 487.745 113.165 488.421 112.488C489.098 111.811 489.098 111.135 488.421 110.458Z" fill="#FAFAFA"/>
<path d="M312.162 157.483L305.058 150.379L312.162 143.274C312.839 142.598 312.839 141.921 312.162 141.244C311.486 140.568 310.809 140.568 310.133 141.244L303.028 148.349L295.924 141.244C295.247 140.568 294.57 140.568 293.894 141.244C293.217 141.921 293.217 142.598 293.894 143.274L300.998 150.379L293.894 157.483C293.217 158.16 293.217 158.836 293.894 159.513C294.57 160.19 295.247 160.19 295.924 159.513L303.028 152.409L310.133 159.513C310.809 160.19 311.486 160.19 312.162 159.513C312.839 158.836 312.839 157.822 312.162 157.483Z" fill="#FAFAFA"/>
<path d="M194.776 157.483L187.672 150.379L194.776 143.274C195.453 142.598 195.453 141.921 194.776 141.244C194.1 140.568 193.423 140.568 192.746 141.244L185.642 148.349L178.537 141.244C177.861 140.568 177.184 140.568 176.507 141.244C175.831 141.921 175.831 142.598 176.507 143.274L183.612 150.379L176.507 157.483C175.831 158.16 175.831 158.836 176.507 159.513C177.184 160.19 177.861 160.19 178.537 159.513L185.642 152.409L192.746 159.513C193.423 160.19 194.1 160.19 194.776 159.513C195.453 158.836 195.453 157.822 194.776 157.483Z" fill="#FAFAFA"/>
<path d="M77.7762 157.483L70.6717 150.379L77.7762 143.274C78.4528 142.598 78.4528 141.921 77.7762 141.244C77.0996 140.568 76.423 140.568 75.7463 141.244L68.6418 148.349L61.5373 141.244C60.8607 140.568 60.1841 140.568 59.5075 141.244C58.8308 141.921 58.8308 142.598 59.5075 143.274L66.612 150.379L59.5075 157.483C58.8308 158.16 58.8308 158.836 59.5075 159.513C60.1841 160.19 60.8607 160.19 61.5373 159.513L68.6418 152.409L75.7463 159.513C76.423 160.19 77.0996 160.19 77.7762 159.513C78.4528 158.836 78.4528 157.822 77.7762 157.483Z" fill="#FAFAFA"/>
<path d="M370.69 157.483L363.585 150.379L370.69 143.274C371.366 142.598 371.366 141.921 370.69 141.244C370.013 140.568 369.336 140.568 368.66 141.244L361.555 148.349L354.451 141.244C353.774 140.568 353.097 140.568 352.421 141.244C351.744 141.921 351.744 142.598 352.421 143.274L359.525 150.379L352.421 157.483C351.744 158.16 351.744 158.836 352.421 159.513C353.097 160.19 353.774 160.19 354.451 159.513L361.555 152.409L368.66 159.513C369.336 160.19 370.013 160.19 370.69 159.513C371.366 158.836 371.366 157.822 370.69 157.483Z" fill="#FAFAFA"/>
<path d="M253.303 157.483L246.199 150.379L253.303 143.274C253.98 142.598 253.98 141.921 253.303 141.244C252.627 140.568 251.95 140.568 251.274 141.244L244.169 148.349L237.064 141.244C236.388 140.568 235.711 140.568 235.035 141.244C234.358 141.921 234.358 142.598 235.035 143.274L242.139 150.379L235.035 157.483C234.358 158.16 234.358 158.836 235.035 159.513C235.711 160.19 236.388 160.19 237.064 159.513L244.169 152.409L251.274 159.513C251.95 160.19 252.627 160.19 253.303 159.513C253.98 158.836 253.98 157.822 253.303 157.483Z" fill="#FAFAFA"/>
<path d="M136.303 157.483L129.199 150.379L136.303 143.274C136.98 142.598 136.98 141.921 136.303 141.244C135.627 140.568 134.95 140.568 134.274 141.244L127.169 148.349L120.064 141.244C119.388 140.568 118.711 140.568 118.035 141.244C117.358 141.921 117.358 142.598 118.035 143.274L125.139 150.379L118.035 157.483C117.358 158.16 117.358 158.836 118.035 159.513C118.711 160.19 119.388 160.19 120.064 159.513L127.169 152.409L134.274 159.513C134.95 160.19 135.627 160.19 136.303 159.513C136.98 158.836 136.98 157.822 136.303 157.483Z" fill="#FAFAFA"/>
<path d="M19.3033 157.483L12.1989 150.379L19.3033 143.274C19.9799 142.598 19.9799 141.921 19.3033 141.244C18.6267 140.568 17.9502 140.568 17.2735 141.244L10.169 148.349L3.06445 141.244C2.38783 140.568 1.71119 140.568 1.03457 141.244C0.357944 141.921 0.357944 142.598 1.03457 143.274L8.13911 150.379L1.03457 157.483C0.357944 158.16 0.357944 158.836 1.03457 159.513C1.71119 160.19 2.38783 160.19 3.06445 159.513L10.169 152.409L17.2735 159.513C17.9502 160.19 18.6267 160.19 19.3033 159.513C19.9799 158.836 19.9799 157.822 19.3033 157.483Z" fill="#FAFAFA"/>
<path d="M429.555 157.483L422.451 150.379L429.555 143.274C430.232 142.598 430.232 141.921 429.555 141.244C428.879 140.568 428.202 140.568 427.525 141.244L420.421 148.349L413.316 141.244C412.64 140.568 411.963 140.568 411.287 141.244C410.61 141.921 410.61 142.598 411.287 143.274L418.391 150.379L411.287 157.483C410.61 158.16 410.61 158.836 411.287 159.513C411.963 160.19 412.64 160.19 413.316 159.513L420.421 152.409L427.525 159.513C428.202 160.19 428.879 160.19 429.555 159.513C430.232 158.836 430.232 157.822 429.555 157.483Z" fill="#FAFAFA"/>
<path d="M488.421 157.483L481.317 150.379L488.421 143.274C489.098 142.598 489.098 141.921 488.421 141.244C487.745 140.568 487.068 140.568 486.392 141.244L479.287 148.349L472.183 141.244C471.506 140.568 470.829 140.568 470.153 141.244C469.476 141.921 469.476 142.598 470.153 143.274L477.257 150.379L470.153 157.483C469.476 158.16 469.476 158.836 470.153 159.513C470.829 160.19 471.506 160.19 472.183 159.513L479.287 152.409L486.392 159.513C487.068 160.19 487.745 160.19 488.421 159.513C489.098 158.836 489.098 157.822 488.421 157.483Z" fill="#FAFAFA"/>
<path d="M312.162 204.17L305.058 197.066L312.162 189.961C312.839 189.284 312.839 188.608 312.162 187.931C311.486 187.255 310.809 187.255 310.133 187.931L303.028 195.036L295.924 187.931C295.247 187.255 294.57 187.255 293.894 187.931C293.217 188.608 293.217 189.284 293.894 189.961L300.998 197.066L293.894 204.17C293.217 204.847 293.217 205.523 293.894 206.2C294.57 206.877 295.247 206.877 295.924 206.2L303.028 199.096L310.133 206.2C310.809 206.877 311.486 206.877 312.162 206.2C312.839 205.523 312.839 204.847 312.162 204.17Z" fill="#FAFAFA"/>
<path d="M194.776 204.17L187.672 197.066L194.776 189.961C195.453 189.284 195.453 188.608 194.776 187.931C194.1 187.255 193.423 187.255 192.746 187.931L185.642 195.036L178.537 187.931C177.861 187.255 177.184 187.255 176.507 187.931C175.831 188.608 175.831 189.284 176.507 189.961L183.612 197.066L176.507 204.17C175.831 204.847 175.831 205.523 176.507 206.2C177.184 206.877 177.861 206.877 178.537 206.2L185.642 199.096L192.746 206.2C193.423 206.877 194.1 206.877 194.776 206.2C195.453 205.523 195.453 204.847 194.776 204.17Z" fill="#FAFAFA"/>
<path d="M77.7762 204.17L70.6717 197.066L77.7762 189.961C78.4528 189.284 78.4528 188.608 77.7762 187.931C77.0996 187.255 76.423 187.255 75.7463 187.931L68.6418 195.036L61.5373 187.931C60.8607 187.255 60.1841 187.255 59.5075 187.931C58.8308 188.608 58.8308 189.284 59.5075 189.961L66.612 197.066L59.5075 204.17C58.8308 204.847 58.8308 205.523 59.5075 206.2C60.1841 206.877 60.8607 206.877 61.5373 206.2L68.6418 199.096L75.7463 206.2C76.423 206.877 77.0996 206.877 77.7762 206.2C78.4528 205.523 78.4528 204.847 77.7762 204.17Z" fill="#FAFAFA"/>
<path d="M312.162 250.622L305.058 243.517L312.162 236.412C312.839 235.736 312.839 235.059 312.162 234.383C311.486 233.706 310.809 233.706 310.133 234.383L303.028 241.487L295.924 234.383C295.247 233.706 294.57 233.706 293.894 234.383C293.217 235.059 293.217 235.736 293.894 236.412L300.998 243.517L293.894 250.622C293.217 251.298 293.217 251.975 293.894 252.651C294.57 253.328 295.247 253.328 295.924 252.651L303.028 245.547L310.133 252.651C310.809 253.328 311.486 253.328 312.162 252.651C312.839 251.975 312.839 251.298 312.162 250.622Z" fill="#FAFAFA"/>
<path d="M194.776 250.622L187.672 243.517L194.776 236.412C195.453 235.736 195.453 235.059 194.776 234.383C194.1 233.706 193.423 233.706 192.746 234.383L185.642 241.487L178.537 234.383C177.861 233.706 177.184 233.706 176.507 234.383C175.831 235.059 175.831 235.736 176.507 236.412L183.612 243.517L176.507 250.622C175.831 251.298 175.831 251.975 176.507 252.651C177.184 253.328 177.861 253.328 178.537 252.651L185.642 245.547L192.746 252.651C193.423 253.328 194.1 253.328 194.776 252.651C195.453 251.975 195.453 251.298 194.776 250.622Z" fill="#FAFAFA"/>
<path d="M77.7762 250.622L70.6717 243.517L77.7762 236.412C78.4528 235.736 78.4528 235.059 77.7762 234.383C77.0996 233.706 76.423 233.706 75.7463 234.383L68.6418 241.487L61.5373 234.383C60.8607 233.706 60.1841 233.706 59.5075 234.383C58.8308 235.059 58.8308 235.736 59.5075 236.412L66.612 243.517L59.5075 250.622C58.8308 251.298 58.8308 251.975 59.5075 252.651C60.1841 253.328 60.8607 253.328 61.5373 252.651L68.6418 245.547L75.7463 252.651C76.423 253.328 77.0996 253.328 77.7762 252.651C78.4528 251.975 78.4528 251.298 77.7762 250.622Z" fill="#FAFAFA"/>
<path d="M312.162 297.073L305.058 289.968L312.162 282.864C312.839 282.187 312.839 281.511 312.162 280.834C311.486 280.158 310.809 280.158 310.133 280.834L303.028 287.939L295.924 280.834C295.247 280.158 294.57 280.158 293.894 280.834C293.217 281.511 293.217 282.187 293.894 282.864L300.998 289.968L293.894 297.073C293.217 297.75 293.217 298.426 293.894 299.103C294.57 299.779 295.247 299.779 295.924 299.103L303.028 291.998L310.133 299.103C310.809 299.779 311.486 299.779 312.162 299.103C312.839 298.426 312.839 297.75 312.162 297.073Z" fill="#FAFAFA"/>
<path d="M194.776 297.073L187.672 289.968L194.776 282.864C195.453 282.187 195.453 281.511 194.776 280.834C194.1 280.158 193.423 280.158 192.746 280.834L185.642 287.939L178.537 280.834C177.861 280.158 177.184 280.158 176.507 280.834C175.831 281.511 175.831 282.187 176.507 282.864L183.612 289.968L176.507 297.073C175.831 297.75 175.831 298.426 176.507 299.103C177.184 299.779 177.861 299.779 178.537 299.103L185.642 291.998L192.746 299.103C193.423 299.779 194.1 299.779 194.776 299.103C195.453 298.426 195.453 297.75 194.776 297.073Z" fill="#FAFAFA"/>
<path d="M77.7762 297.073L70.6717 289.968L77.7762 282.864C78.4528 282.187 78.4528 281.511 77.7762 280.834C77.0996 280.158 76.423 280.158 75.7463 280.834L68.6418 287.939L61.5373 280.834C60.8607 280.158 60.1841 280.158 59.5075 280.834C58.8308 281.511 58.8308 282.187 59.5075 282.864L66.612 289.968L59.5075 297.073C58.8308 297.75 58.8308 298.426 59.5075 299.103C60.1841 299.779 60.8607 299.779 61.5373 299.103L68.6418 291.998L75.7463 299.103C76.423 299.779 77.0996 299.779 77.7762 299.103C78.4528 298.426 78.4528 297.75 77.7762 297.073Z" fill="#FAFAFA"/>
<path d="M312.162 343.524L305.058 336.42L312.162 329.315C312.839 328.639 312.839 327.962 312.162 327.286C311.486 326.609 310.809 326.609 310.133 327.286L303.028 334.39L295.924 327.286C295.247 326.609 294.57 326.609 293.894 327.286C293.217 327.962 293.217 328.639 293.894 329.315L300.998 336.42L293.894 343.524C293.217 344.201 293.217 344.878 293.894 345.554C294.57 346.231 295.247 346.231 295.924 345.554L303.028 338.45L310.133 345.554C310.809 346.231 311.486 346.231 312.162 345.554C312.839 344.878 312.839 344.201 312.162 343.524Z" fill="#FAFAFA"/>
<path d="M194.776 343.524L187.672 336.42L194.776 329.315C195.453 328.639 195.453 327.962 194.776 327.286C194.1 326.609 193.423 326.609 192.746 327.286L185.642 334.39L178.537 327.286C177.861 326.609 177.184 326.609 176.507 327.286C175.831 327.962 175.831 328.639 176.507 329.315L183.612 336.42L176.507 343.524C175.831 344.201 175.831 344.878 176.507 345.554C177.184 346.231 177.861 346.231 178.537 345.554L185.642 338.45L192.746 345.554C193.423 346.231 194.1 346.231 194.776 345.554C195.453 344.878 195.453 344.201 194.776 343.524Z" fill="#FAFAFA"/>
<path d="M77.7762 343.524L70.6717 336.42L77.7762 329.315C78.4528 328.639 78.4528 327.962 77.7762 327.286C77.0996 326.609 76.423 326.609 75.7463 327.286L68.6418 334.39L61.5373 327.286C60.8607 326.609 60.1841 326.609 59.5075 327.286C58.8308 327.962 58.8308 328.639 59.5075 329.315L66.612 336.42L59.5075 343.524C58.8308 344.201 58.8308 344.878 59.5075 345.554C60.1841 346.231 60.8607 346.231 61.5373 345.554L68.6418 338.45L75.7463 345.554C76.423 346.231 77.0996 346.231 77.7762 345.554C78.4528 344.878 78.4528 344.201 77.7762 343.524Z" fill="#FAFAFA"/>
<path d="M370.69 204.17L363.585 197.066L370.69 189.961C371.366 189.284 371.366 188.608 370.69 187.931C370.013 187.255 369.336 187.255 368.66 187.931L361.555 195.036L354.451 187.931C353.774 187.255 353.097 187.255 352.421 187.931C351.744 188.608 351.744 189.284 352.421 189.961L359.525 197.066L352.421 204.17C351.744 204.847 351.744 205.523 352.421 206.2C353.097 206.877 353.774 206.877 354.451 206.2L361.555 199.096L368.66 206.2C369.336 206.877 370.013 206.877 370.69 206.2C371.366 205.523 371.366 204.847 370.69 204.17Z" fill="#FAFAFA"/>
<path d="M253.303 204.17L246.199 197.066L253.303 189.961C253.98 189.284 253.98 188.608 253.303 187.931C252.627 187.255 251.95 187.255 251.274 187.931L244.169 195.036L237.064 187.931C236.388 187.255 235.711 187.255 235.035 187.931C234.358 188.608 234.358 189.284 235.035 189.961L242.139 197.066L235.035 204.17C234.358 204.847 234.358 205.523 235.035 206.2C235.711 206.877 236.388 206.877 237.064 206.2L244.169 199.096L251.274 206.2C251.95 206.877 252.627 206.877 253.303 206.2C253.98 205.523 253.98 204.847 253.303 204.17Z" fill="#FAFAFA"/>
<path d="M136.303 204.17L129.199 197.066L136.303 189.961C136.98 189.284 136.98 188.608 136.303 187.931C135.627 187.255 134.95 187.255 134.274 187.931L127.169 195.036L120.064 187.931C119.388 187.255 118.711 187.255 118.035 187.931C117.358 188.608 117.358 189.284 118.035 189.961L125.139 197.066L118.035 204.17C117.358 204.847 117.358 205.523 118.035 206.2C118.711 206.877 119.388 206.877 120.064 206.2L127.169 199.096L134.274 206.2C134.95 206.877 135.627 206.877 136.303 206.2C136.98 205.523 136.98 204.847 136.303 204.17Z" fill="#FAFAFA"/>
<path d="M19.3033 204.17L12.1989 197.066L19.3033 189.961C19.9799 189.284 19.9799 188.608 19.3033 187.931C18.6267 187.255 17.9502 187.255 17.2735 187.931L10.169 195.036L3.06445 187.931C2.38783 187.255 1.71119 187.255 1.03457 187.931C0.357944 188.608 0.357944 189.284 1.03457 189.961L8.13911 197.066L1.03457 204.17C0.357944 204.847 0.357944 205.523 1.03457 206.2C1.71119 206.877 2.38783 206.877 3.06445 206.2L10.169 199.096L17.2735 206.2C17.9502 206.877 18.6267 206.877 19.3033 206.2C19.9799 205.523 19.9799 204.847 19.3033 204.17Z" fill="#FAFAFA"/>
<path d="M370.69 250.622L363.585 243.517L370.69 236.412C371.366 235.736 371.366 235.059 370.69 234.383C370.013 233.706 369.336 233.706 368.66 234.383L361.555 241.487L354.451 234.383C353.774 233.706 353.097 233.706 352.421 234.383C351.744 235.059 351.744 235.736 352.421 236.412L359.525 243.517L352.421 250.622C351.744 251.298 351.744 251.975 352.421 252.651C353.097 253.328 353.774 253.328 354.451 252.651L361.555 245.547L368.66 252.651C369.336 253.328 370.013 253.328 370.69 252.651C371.366 251.975 371.366 251.298 370.69 250.622Z" fill="#FAFAFA"/>
<path d="M253.303 250.622L246.199 243.517L253.303 236.412C253.98 235.736 253.98 235.059 253.303 234.383C252.627 233.706 251.95 233.706 251.274 234.383L244.169 241.487L237.064 234.383C236.388 233.706 235.711 233.706 235.035 234.383C234.358 235.059 234.358 235.736 235.035 236.412L242.139 243.517L235.035 250.622C234.358 251.298 234.358 251.975 235.035 252.651C235.711 253.328 236.388 253.328 237.064 252.651L244.169 245.547L251.274 252.651C251.95 253.328 252.627 253.328 253.303 252.651C253.98 251.975 253.98 251.298 253.303 250.622Z" fill="#FAFAFA"/>
<path d="M136.303 250.622L129.199 243.517L136.303 236.412C136.98 235.736 136.98 235.059 136.303 234.383C135.627 233.706 134.95 233.706 134.274 234.383L127.169 241.487L120.064 234.383C119.388 233.706 118.711 233.706 118.035 234.383C117.358 235.059 117.358 235.736 118.035 236.412L125.139 243.517L118.035 250.622C117.358 251.298 117.358 251.975 118.035 252.651C118.711 253.328 119.388 253.328 120.064 252.651L127.169 245.547L134.274 252.651C134.95 253.328 135.627 253.328 136.303 252.651C136.98 251.975 136.98 251.298 136.303 250.622Z" fill="#FAFAFA"/>
<path d="M19.3033 250.622L12.1989 243.517L19.3033 236.412C19.9799 235.736 19.9799 235.059 19.3033 234.383C18.6267 233.706 17.9502 233.706 17.2735 234.383L10.169 241.487L3.06445 234.383C2.38783 233.706 1.71119 233.706 1.03457 234.383C0.357944 235.059 0.357944 235.736 1.03457 236.412L8.13911 243.517L1.03457 250.622C0.357944 251.298 0.357944 251.975 1.03457 252.651C1.71119 253.328 2.38783 253.328 3.06445 252.651L10.169 245.547L17.2735 252.651C17.9502 253.328 18.6267 253.328 19.3033 252.651C19.9799 251.975 19.9799 251.298 19.3033 250.622Z" fill="#FAFAFA"/>
<path d="M370.69 297.073L363.585 289.968L370.69 282.864C371.366 282.187 371.366 281.511 370.69 280.834C370.013 280.158 369.336 280.158 368.66 280.834L361.555 287.939L354.451 280.834C353.774 280.158 353.097 280.158 352.421 280.834C351.744 281.511 351.744 282.187 352.421 282.864L359.525 289.968L352.421 297.073C351.744 297.75 351.744 298.426 352.421 299.103C353.097 299.779 353.774 299.779 354.451 299.103L361.555 291.998L368.66 299.103C369.336 299.779 370.013 299.779 370.69 299.103C371.366 298.426 371.366 297.75 370.69 297.073Z" fill="#FAFAFA"/>
<path d="M253.303 297.073L246.199 289.968L253.303 282.864C253.98 282.187 253.98 281.511 253.303 280.834C252.627 280.158 251.95 280.158 251.274 280.834L244.169 287.939L237.064 280.834C236.388 280.158 235.711 280.158 235.035 280.834C234.358 281.511 234.358 282.187 235.035 282.864L242.139 289.968L235.035 297.073C234.358 297.75 234.358 298.426 235.035 299.103C235.711 299.779 236.388 299.779 237.064 299.103L244.169 291.998L251.274 299.103C251.95 299.779 252.627 299.779 253.303 299.103C253.98 298.426 253.98 297.75 253.303 297.073Z" fill="#FAFAFA"/>
<path d="M136.303 297.073L129.199 289.968L136.303 282.864C136.98 282.187 136.98 281.511 136.303 280.834C135.627 280.158 134.95 280.158 134.274 280.834L127.169 287.939L120.064 280.834C119.388 280.158 118.711 280.158 118.035 280.834C117.358 281.511 117.358 282.187 118.035 282.864L125.139 289.968L118.035 297.073C117.358 297.75 117.358 298.426 118.035 299.103C118.711 299.779 119.388 299.779 120.064 299.103L127.169 291.998L134.274 299.103C134.95 299.779 135.627 299.779 136.303 299.103C136.98 298.426 136.98 297.75 136.303 297.073Z" fill="#FAFAFA"/>
<path d="M19.3033 297.073L12.1989 289.968L19.3033 282.864C19.9799 282.187 19.9799 281.511 19.3033 280.834C18.6267 280.158 17.9502 280.158 17.2735 280.834L10.169 287.939L3.06445 280.834C2.38783 280.158 1.71119 280.158 1.03457 280.834C0.357944 281.511 0.357944 282.187 1.03457 282.864L8.13911 289.968L1.03457 297.073C0.357944 297.75 0.357944 298.426 1.03457 299.103C1.71119 299.779 2.38783 299.779 3.06445 299.103L10.169 291.998L17.2735 299.103C17.9502 299.779 18.6267 299.779 19.3033 299.103C19.9799 298.426 19.9799 297.75 19.3033 297.073Z" fill="#FAFAFA"/>
<path d="M370.69 343.524L363.585 336.42L370.69 329.315C371.366 328.639 371.366 327.962 370.69 327.286C370.013 326.609 369.336 326.609 368.66 327.286L361.555 334.39L354.451 327.286C353.774 326.609 353.097 326.609 352.421 327.286C351.744 327.962 351.744 328.639 352.421 329.315L359.525 336.42L352.421 343.524C351.744 344.201 351.744 344.878 352.421 345.554C353.097 346.231 353.774 346.231 354.451 345.554L361.555 338.45L368.66 345.554C369.336 346.231 370.013 346.231 370.69 345.554C371.366 344.878 371.366 344.201 370.69 343.524Z" fill="#FAFAFA"/>
<path d="M253.303 343.524L246.199 336.42L253.303 329.315C253.98 328.639 253.98 327.962 253.303 327.286C252.627 326.609 251.95 326.609 251.274 327.286L244.169 334.39L237.064 327.286C236.388 326.609 235.711 326.609 235.035 327.286C234.358 327.962 234.358 328.639 235.035 329.315L242.139 336.42L235.035 343.524C234.358 344.201 234.358 344.878 235.035 345.554C235.711 346.231 236.388 346.231 237.064 345.554L244.169 338.45L251.274 345.554C251.95 346.231 252.627 346.231 253.303 345.554C253.98 344.878 253.98 344.201 253.303 343.524Z" fill="#FAFAFA"/>
<path d="M136.303 343.524L129.199 336.42L136.303 329.315C136.98 328.639 136.98 327.962 136.303 327.286C135.627 326.609 134.95 326.609 134.274 327.286L127.169 334.39L120.064 327.286C119.388 326.609 118.711 326.609 118.035 327.286C117.358 327.962 117.358 328.639 118.035 329.315L125.139 336.42L118.035 343.524C117.358 344.201 117.358 344.878 118.035 345.554C118.711 346.231 119.388 346.231 120.064 345.554L127.169 338.45L134.274 345.554C134.95 346.231 135.627 346.231 136.303 345.554C136.98 344.878 136.98 344.201 136.303 343.524Z" fill="#FAFAFA"/>
<path d="M19.3033 343.524L12.1989 336.42L19.3033 329.315C19.9799 328.639 19.9799 327.962 19.3033 327.286C18.6267 326.609 17.9502 326.609 17.2735 327.286L10.169 334.39L3.06445 327.286C2.38783 326.609 1.71119 326.609 1.03457 327.286C0.357944 327.962 0.357944 328.639 1.03457 329.315L8.13911 336.42L1.03457 343.524C0.357944 344.201 0.357944 344.878 1.03457 345.554C1.71119 346.231 2.38783 346.231 3.06445 345.554L10.169 338.45L17.2735 345.554C17.9502 346.231 18.6267 346.231 19.3033 345.554C19.9799 344.878 19.9799 344.201 19.3033 343.524Z" fill="#FAFAFA"/>
<path d="M429.555 204.17L422.451 197.066L429.555 189.961C430.232 189.284 430.232 188.608 429.555 187.931C428.879 187.255 428.202 187.255 427.525 187.931L420.421 195.036L413.316 187.931C412.64 187.255 411.963 187.255 411.287 187.931C410.61 188.608 410.61 189.284 411.287 189.961L418.391 197.066L411.287 204.17C410.61 204.847 410.61 205.523 411.287 206.2C411.963 206.877 412.64 206.877 413.316 206.2L420.421 199.096L427.525 206.2C428.202 206.877 428.879 206.877 429.555 206.2C430.232 205.523 430.232 204.847 429.555 204.17Z" fill="#FAFAFA"/>
<path d="M429.555 250.622L422.451 243.517L429.555 236.412C430.232 235.736 430.232 235.059 429.555 234.383C428.879 233.706 428.202 233.706 427.525 234.383L420.421 241.487L413.316 234.383C412.64 233.706 411.963 233.706 411.287 234.383C410.61 235.059 410.61 235.736 411.287 236.412L418.391 243.517L411.287 250.622C410.61 251.298 410.61 251.975 411.287 252.651C411.963 253.328 412.64 253.328 413.316 252.651L420.421 245.547L427.525 252.651C428.202 253.328 428.879 253.328 429.555 252.651C430.232 251.975 430.232 251.298 429.555 250.622Z" fill="#FAFAFA"/>
<path d="M429.555 297.073L422.451 289.968L429.555 282.864C430.232 282.187 430.232 281.511 429.555 280.834C428.879 280.158 428.202 280.158 427.525 280.834L420.421 287.939L413.316 280.834C412.64 280.158 411.963 280.158 411.287 280.834C410.61 281.511 410.61 282.187 411.287 282.864L418.391 289.968L411.287 297.073C410.61 297.75 410.61 298.426 411.287 299.103C411.963 299.779 412.64 299.779 413.316 299.103L420.421 291.998L427.525 299.103C428.202 299.779 428.879 299.779 429.555 299.103C430.232 298.426 430.232 297.75 429.555 297.073Z" fill="#FAFAFA"/>
<path d="M429.555 343.524L422.451 336.42L429.555 329.315C430.232 328.639 430.232 327.962 429.555 327.286C428.879 326.609 428.202 326.609 427.525 327.286L420.421 334.39L413.316 327.286C412.64 326.609 411.963 326.609 411.287 327.286C410.61 327.962 410.61 328.639 411.287 329.315L418.391 336.42L411.287 343.524C410.61 344.201 410.61 344.878 411.287 345.554C411.963 346.231 412.64 346.231 413.316 345.554L420.421 338.45L427.525 345.554C428.202 346.231 428.879 346.231 429.555 345.554C430.232 344.878 430.232 344.201 429.555 343.524Z" fill="#FAFAFA"/>
<path d="M488.421 204.17L481.317 197.066L488.421 189.961C489.098 189.284 489.098 188.608 488.421 187.931C487.745 187.255 487.068 187.255 486.392 187.931L479.287 195.036L472.183 187.931C471.506 187.255 470.829 187.255 470.153 187.931C469.476 188.608 469.476 189.284 470.153 189.961L477.257 197.066L470.153 204.17C469.476 204.847 469.476 205.523 470.153 206.2C470.829 206.877 471.506 206.877 472.183 206.2L479.287 199.096L486.392 206.2C487.068 206.877 487.745 206.877 488.421 206.2C489.098 205.523 489.098 204.847 488.421 204.17Z" fill="#FAFAFA"/>
<path d="M488.421 250.622L481.317 243.517L488.421 236.412C489.098 235.736 489.098 235.059 488.421 234.383C487.745 233.706 487.068 233.706 486.392 234.383L479.287 241.487L472.183 234.383C471.506 233.706 470.829 233.706 470.153 234.383C469.476 235.059 469.476 235.736 470.153 236.412L477.257 243.517L470.153 250.622C469.476 251.298 469.476 251.975 470.153 252.651C470.829 253.328 471.506 253.328 472.183 252.651L479.287 245.547L486.392 252.651C487.068 253.328 487.745 253.328 488.421 252.651C489.098 251.975 489.098 251.298 488.421 250.622Z" fill="#FAFAFA"/>
<path d="M488.421 297.073L481.317 289.968L488.421 282.864C489.098 282.187 489.098 281.511 488.421 280.834C487.745 280.158 487.068 280.158 486.392 280.834L479.287 287.939L472.183 280.834C471.506 280.158 470.829 280.158 470.153 280.834C469.476 281.511 469.476 282.187 470.153 282.864L477.257 289.968L470.153 297.073C469.476 297.75 469.476 298.426 470.153 299.103C470.829 299.779 471.506 299.779 472.183 299.103L479.287 291.998L486.392 299.103C487.068 299.779 487.745 299.779 488.421 299.103C489.098 298.426 489.098 297.75 488.421 297.073Z" fill="#FAFAFA"/>
<path d="M488.421 343.524L481.317 336.42L488.421 329.315C489.098 328.639 489.098 327.962 488.421 327.286C487.745 326.609 487.068 326.609 486.392 327.286L479.287 334.39L472.183 327.286C471.506 326.609 470.829 326.609 470.153 327.286C469.476 327.962 469.476 328.639 470.153 329.315L477.257 336.42L470.153 343.524C469.476 344.201 469.476 344.878 470.153 345.554C470.829 346.231 471.506 346.231 472.183 345.554L479.287 338.45L486.392 345.554C487.068 346.231 487.745 346.231 488.421 345.554C489.098 344.878 489.098 344.201 488.421 343.524Z" fill="#FAFAFA"/>
</svg>
