<svg width="164" height="43" viewBox="0 0 164 43" fill="none" xmlns="http://www.w3.org/2000/svg">
<g opacity="0.8">
<path fill-rule="evenodd" clip-rule="evenodd" d="M6.49803 2.453L5.49932 1.45428V2.86668V9.58626L0.998716 5.08565L0 4.08694V5.49933V34.634V34.8764L0.171352 35.0477L5.67067 40.547L6.66939 41.5457V40.1334V30.4261C9.69602 35.4705 15.2184 38.8463 21.5293 38.8463C27.7997 38.8463 33.2917 35.5136 36.3306 30.5229V40.1334V41.5457L37.3293 40.547L42.8286 35.0477L43 34.8764V34.634V5.49933V4.07309L41.9985 5.08851L37.5007 9.64857V2.86668V1.45428L36.502 2.453L31.5503 7.40465C28.7219 5.3943 25.2636 4.21226 21.5293 4.21226C17.7799 4.21226 14.3088 5.40385 11.474 7.42899L6.49803 2.453ZM5.49932 23.4831V28.0926V38.721L1.17007 34.3917V6.91173L5.49932 11.241V14.9659V19.5754V23.4831ZM6.66939 27.8572V15.2014C9.13073 9.42877 14.8574 5.38233 21.5293 5.38233C27.0426 5.38233 31.9105 8.14552 34.8237 12.3626L31.9587 15.2673L31.6199 14.7253L31.6132 14.7145L31.606 14.7041L31.3604 14.3466L31.3612 14.3461C31.306 14.2644 31.2501 14.1835 31.1933 14.1036L31.1379 14.023L31.1364 14.024C27.2309 8.60739 19.7058 7.23259 14.126 10.9798L14.1099 10.9907L14.1018 10.9961C8.43067 14.8427 6.94054 22.5561 10.7761 28.2391C14.617 33.9302 22.3443 35.4301 28.0354 31.5891L28.0255 31.5744L26.7001 31.0448C21.6248 33.9737 15.0745 32.5164 11.7459 27.5846C8.26998 22.4343 9.62235 15.4433 14.7649 11.9603C19.8431 8.53946 26.7068 9.80876 30.2344 14.7741L30.6344 15.3562L31.359 16.5155L31.7515 17.1436L32.2716 16.6163L36.3306 12.5011V12.5356V15.0659V27.9926C33.8379 33.693 28.1487 37.6762 21.5293 37.6762C14.8574 37.6762 9.13073 33.6298 6.66939 27.8572ZM36.3306 10.8348L35.6591 11.5156C34.7583 10.2468 33.6909 9.10462 32.4888 8.12088L36.3306 4.27908V10.8348ZM37.5007 19.1402V14.8249V11.3148L41.8299 6.92558V34.3917L37.5007 38.721V28.2336V23.9183V19.1402ZM6.66939 10.9987V12.6324C7.69456 10.9238 9.00606 9.40664 10.5376 8.14724L6.66939 4.27908V10.9987ZM18.6667 16.2764L21.0863 18.696L21.5 19.1097L21.9137 18.696L24.3333 16.2764V14.6217L21.5 17.455L18.6667 14.6217V16.2764ZM14.5924 18.6794L21.5 25.5869L28.4076 18.6794V20.3341L21.9137 26.828L21.5 27.2417L21.0863 26.828L14.5924 20.3341V18.6794Z" fill="#FAFAFA"/>
<path d="M71.18 13.5L68.62 18.9C68.2467 19.62 67.78 19.98 67.22 19.98C66.6733 19.98 66.2133 19.6 65.84 18.84L63.24 13.5V22H60.46V7.76H63.2L67.22 15.98L71.22 7.76H73.96V22H71.18V13.5ZM89.5309 22H87.7909L86.9909 20.62L84.2109 22.12C82.6643 22.12 81.6243 21.56 81.0909 20.44C80.8243 19.8933 80.6376 19.3067 80.5309 18.68C80.4376 18.04 80.3909 17.38 80.3909 16.7C80.3909 16.0067 80.3976 15.5 80.4109 15.18C80.4243 14.8467 80.4576 14.4667 80.5109 14.04C80.5643 13.6 80.6376 13.2333 80.7309 12.94C80.8376 12.6467 80.9843 12.3467 81.1709 12.04C81.3576 11.72 81.5843 11.4667 81.8509 11.28C82.4509 10.8667 83.2309 10.66 84.1909 10.66H86.9309L89.5309 10.5V22ZM86.9309 18.36V13H84.9509C84.2176 13 83.7043 13.28 83.4109 13.84C83.1309 14.4 82.9909 15.24 82.9909 16.36C82.9909 17.4667 83.1243 18.2467 83.3909 18.7C83.6709 19.1533 84.1909 19.38 84.9509 19.38L86.9309 18.36ZM103.415 10.62L102.695 13.18C102.495 13.1 102.268 13.06 102.015 13.06C101.348 13.06 100.528 13.3467 99.5545 13.92V22H96.9545V10.58H98.8945L99.4945 11.58L102.255 10.44C102.388 10.4267 102.568 10.42 102.795 10.42C103.021 10.42 103.228 10.4867 103.415 10.62ZM115.988 17.82L118.348 17.8C118.334 17.9067 118.321 18.1 118.308 18.38C118.294 18.66 118.281 18.8533 118.268 18.96C118.268 19.0533 118.254 19.2067 118.228 19.42C118.201 19.6333 118.168 19.7933 118.128 19.9C118.101 19.9933 118.061 20.12 118.008 20.28C117.768 20.9733 117.114 21.52 116.048 21.92C115.368 22.16 114.654 22.28 113.908 22.28C113.174 22.28 112.508 22.16 111.908 21.92C111.308 21.68 110.834 21.3733 110.488 21C109.701 20.1733 109.308 18.6267 109.308 16.36C109.308 14.08 109.701 12.5267 110.488 11.7C110.834 11.3267 111.308 11.02 111.908 10.78C112.508 10.54 113.174 10.42 113.908 10.42C115.348 10.42 116.441 10.78 117.188 11.5C117.934 12.22 118.308 13.22 118.308 14.5H115.948C115.948 13.9133 115.801 13.48 115.508 13.2C115.214 12.9067 114.668 12.76 113.868 12.76C113.081 12.76 112.554 13.0067 112.288 13.5C112.034 13.9933 111.908 14.7333 111.908 15.72V16.76C111.908 18.3467 112.214 19.32 112.828 19.68C113.108 19.8533 113.474 19.94 113.928 19.94C114.381 19.94 114.748 19.9 115.028 19.82C115.321 19.7267 115.528 19.5733 115.648 19.36C115.781 19.1467 115.868 18.94 115.908 18.74C115.948 18.5267 115.974 18.22 115.988 17.82ZM131.699 16.84V15.8C131.699 14.8133 131.552 14.06 131.259 13.54C130.979 13.02 130.385 12.76 129.479 12.76C128.012 12.76 127.279 13.7467 127.279 15.72V16.76C127.279 18.88 128.012 19.94 129.479 19.94C130.425 19.94 131.045 19.5867 131.339 18.88C131.579 18.32 131.699 17.64 131.699 16.84ZM134.299 16.24C134.299 18.7067 133.832 20.36 132.899 21.2C132.112 21.92 130.972 22.28 129.479 22.28C127.572 22.28 126.285 21.72 125.619 20.6C124.992 19.5733 124.679 18.12 124.679 16.24C124.679 14.48 124.992 13.1 125.619 12.1C126.312 10.98 127.572 10.42 129.399 10.42C131.239 10.42 132.512 10.9133 133.219 11.9C133.939 12.8733 134.299 14.32 134.299 16.24ZM149.218 18.84V19.14C149.138 20.14 148.711 20.8933 147.938 21.4C147.178 21.9067 146.225 22.16 145.078 22.16C143.385 22.16 142.198 21.8533 141.518 21.24C140.891 20.68 140.578 19.8533 140.578 18.76V18.52H142.938C142.938 19.1333 143.098 19.5533 143.418 19.78C143.738 20.0067 144.291 20.12 145.078 20.12C146.145 20.12 146.678 19.7333 146.678 18.96C146.678 18.32 146.491 17.8933 146.118 17.68C145.945 17.5733 145.725 17.4933 145.458 17.44L143.438 17.1C141.678 16.82 140.798 15.72 140.798 13.8C140.798 12.7333 141.185 11.9067 141.958 11.32C142.745 10.72 143.738 10.42 144.938 10.42C147.671 10.42 149.038 11.6 149.038 13.96V14.22H146.778C146.751 13.5933 146.585 13.1667 146.278 12.94C145.971 12.7133 145.538 12.6 144.978 12.6C144.431 12.6 144.018 12.7133 143.738 12.94C143.458 13.1533 143.318 13.3933 143.318 13.66C143.318 14.42 143.625 14.8533 144.238 14.96L146.658 15.4C148.365 15.72 149.218 16.8667 149.218 18.84Z" fill="#FAFAFA"/>
<path opacity="0.8" d="M66.272 27.456V33.072C66.272 34 65.956 34.732 65.324 35.268C64.7 35.804 63.928 36.072 63.008 36.072C62.088 36.072 61.312 35.804 60.68 35.268C60.056 34.732 59.744 34 59.744 33.072V27.456H61.412V33.012C61.412 33.54 61.556 33.936 61.844 34.2C62.14 34.456 62.528 34.584 63.008 34.584C63.488 34.584 63.876 34.456 64.172 34.2C64.468 33.936 64.616 33.54 64.616 33.012V27.456H66.272ZM68.8036 26.532C69.1796 26.532 69.4236 26.592 69.5356 26.712C69.6476 26.824 69.7036 27.068 69.7036 27.444C69.7036 27.812 69.6436 28.056 69.5236 28.176C69.4116 28.288 69.1676 28.344 68.7916 28.344C68.4236 28.344 68.1796 28.284 68.0596 28.164C67.9476 28.044 67.8916 27.8 67.8916 27.432C67.8916 27.064 67.9476 26.824 68.0596 26.712C68.1796 26.592 68.4276 26.532 68.8036 26.532ZM69.5716 36H68.0116V29.4H69.5716V36ZM78.6774 32.412V31.14H81.9054V32.412H80.8014C80.8014 32.516 80.8014 32.716 80.8014 33.012C80.8014 33.3 80.7654 33.648 80.6934 34.056C80.6214 34.456 80.5094 34.792 80.3574 35.064C80.2054 35.328 79.9974 35.536 79.7334 35.688C79.4694 35.84 79.1894 35.944 78.8934 36C78.5974 36.048 78.2334 36.072 77.8014 36.072C76.7614 36.072 75.9774 35.86 75.4494 35.436C74.9294 35.004 74.6694 34.408 74.6694 33.648C74.6694 33.216 74.7374 32.828 74.8734 32.484C75.0174 32.14 75.2854 31.816 75.6774 31.512C75.2214 30.984 74.9934 30.332 74.9934 29.556C74.9934 28.78 75.2254 28.208 75.6894 27.84C76.1614 27.464 76.8494 27.276 77.7534 27.276C78.6654 27.276 79.3534 27.496 79.8174 27.936C80.2814 28.376 80.5134 29.06 80.5134 29.988H78.9414C78.9414 29.484 78.8574 29.148 78.6894 28.98C78.5294 28.804 78.2334 28.716 77.8014 28.716C77.3694 28.716 77.0614 28.816 76.8774 29.016C76.6934 29.208 76.6014 29.384 76.6014 29.544C76.6014 30.016 76.7014 30.432 76.9014 30.792C77.2294 30.648 77.4374 30.56 77.5254 30.528L77.8134 31.86C77.3574 32.052 76.9974 32.276 76.7334 32.532C76.4774 32.78 76.3494 33.104 76.3494 33.504C76.3494 33.896 76.4574 34.184 76.6734 34.368C76.8974 34.544 77.2814 34.632 77.8254 34.632C78.3774 34.632 78.7494 34.476 78.9414 34.164C79.1334 33.844 79.2374 33.26 79.2534 32.412H78.6774ZM92.4189 27.456V33.072C92.4189 34 92.1029 34.732 91.4709 35.268C90.8469 35.804 90.0749 36.072 89.1549 36.072C88.2349 36.072 87.4589 35.804 86.8269 35.268C86.2029 34.732 85.8909 34 85.8909 33.072V27.456H87.5589V33.012C87.5589 33.54 87.7029 33.936 87.9909 34.2C88.2869 34.456 88.6749 34.584 89.1549 34.584C89.6349 34.584 90.0229 34.456 90.3189 34.2C90.6149 33.936 90.7629 33.54 90.7629 33.012V27.456H92.4189ZM99.4025 36H97.6505L96.4385 33.9L95.2985 36H93.4265L95.6465 32.508L93.5105 29.148H95.2625L96.4625 31.128L97.6265 29.148H99.3785L97.2425 32.508L99.4025 36ZM110.08 31.692L110.092 32.616C110.06 33.2 109.988 33.692 109.876 34.092C109.764 34.492 109.544 34.856 109.216 35.184C108.672 35.728 107.88 36 106.84 36C105.616 36 104.776 35.84 104.32 35.52C103.864 35.192 103.636 34.604 103.636 33.756V27.456H106.96C107.92 27.456 108.672 27.728 109.216 28.272C109.656 28.712 109.916 29.248 109.996 29.88C110.052 30.328 110.08 30.932 110.08 31.692ZM108.052 33.984C108.204 33.8 108.3 33.548 108.34 33.228C108.388 32.9 108.412 32.392 108.412 31.704C108.412 31.016 108.388 30.52 108.34 30.216C108.3 29.904 108.204 29.656 108.052 29.472C107.764 29.12 107.348 28.944 106.804 28.944H105.304V33.672C105.304 33.992 105.412 34.212 105.628 34.332C105.844 34.452 106.228 34.512 106.78 34.512C107.34 34.512 107.764 34.336 108.052 33.984ZM116.682 32.94H112.686C112.686 33.564 112.782 34.02 112.974 34.308C113.174 34.596 113.57 34.74 114.162 34.74C114.546 34.74 114.83 34.62 115.014 34.38C115.198 34.132 115.29 33.896 115.29 33.672H116.694C116.694 34.528 116.462 35.156 115.998 35.556C115.542 35.956 114.934 36.156 114.174 36.156C113.422 36.156 112.838 36.048 112.422 35.832C111.566 35.392 111.138 34.224 111.138 32.328C111.138 31.2 111.382 30.376 111.87 29.856C112.358 29.328 113.102 29.064 114.102 29.064C115.838 29.064 116.706 30.028 116.706 31.956C116.706 32.164 116.698 32.492 116.682 32.94ZM112.722 31.872H115.29C115.29 31.344 115.19 30.96 114.99 30.72C114.79 30.48 114.482 30.36 114.066 30.36C113.658 30.36 113.33 30.484 113.082 30.732C112.842 30.972 112.722 31.352 112.722 31.872ZM122.944 34.104V34.284C122.896 34.884 122.64 35.336 122.176 35.64C121.72 35.944 121.148 36.096 120.46 36.096C119.444 36.096 118.732 35.912 118.324 35.544C117.948 35.208 117.76 34.712 117.76 34.056V33.912H119.176C119.176 34.28 119.272 34.532 119.464 34.668C119.656 34.804 119.988 34.872 120.46 34.872C121.1 34.872 121.42 34.64 121.42 34.176C121.42 33.792 121.308 33.536 121.084 33.408C120.98 33.344 120.848 33.296 120.688 33.264L119.476 33.06C118.42 32.892 117.892 32.232 117.892 31.08C117.892 30.44 118.124 29.944 118.588 29.592C119.06 29.232 119.656 29.052 120.376 29.052C122.016 29.052 122.836 29.76 122.836 31.176V31.332H121.48C121.464 30.956 121.364 30.7 121.18 30.564C120.996 30.428 120.736 30.36 120.4 30.36C120.072 30.36 119.824 30.428 119.656 30.564C119.488 30.692 119.404 30.836 119.404 30.996C119.404 31.452 119.588 31.712 119.956 31.776L121.408 32.04C122.432 32.232 122.944 32.92 122.944 34.104ZM125.164 26.532C125.54 26.532 125.784 26.592 125.896 26.712C126.008 26.824 126.064 27.068 126.064 27.444C126.064 27.812 126.004 28.056 125.884 28.176C125.772 28.288 125.528 28.344 125.152 28.344C124.784 28.344 124.54 28.284 124.42 28.164C124.308 28.044 124.252 27.8 124.252 27.432C124.252 27.064 124.308 26.824 124.42 26.712C124.54 26.592 124.788 26.532 125.164 26.532ZM125.932 36H124.372V29.4H125.932V36ZM131.156 29.196L132.716 29.1V35.688C132.716 36.448 132.5 37.028 132.068 37.428C131.644 37.836 131.012 38.04 130.172 38.04C129.524 38.04 128.956 37.912 128.468 37.656C128.212 37.528 128.008 37.336 127.856 37.08C127.704 36.824 127.628 36.52 127.628 36.168L129.08 36.096C129.08 36.32 129.16 36.48 129.32 36.576C129.48 36.672 129.752 36.72 130.136 36.72C130.528 36.72 130.792 36.624 130.928 36.432C131.072 36.24 131.144 35.964 131.144 35.604L131.204 34.572L129.524 35.472C128.604 35.472 127.984 35.16 127.664 34.536C127.376 33.984 127.232 33.308 127.232 32.508C127.232 31.556 127.304 30.884 127.448 30.492C127.6 30.06 127.816 29.748 128.096 29.556C128.456 29.316 128.928 29.196 129.512 29.196H131.156ZM131.156 33.216V30.6H129.968C129.52 30.6 129.212 30.752 129.044 31.056C128.876 31.36 128.792 31.784 128.792 32.328C128.792 32.872 128.876 33.26 129.044 33.492C129.22 33.716 129.528 33.828 129.968 33.828L131.156 33.216ZM139.889 36H138.329V31.62C138.329 31.228 138.249 30.96 138.089 30.816C137.929 30.672 137.705 30.6 137.417 30.6L136.013 31.188V36H134.453V29.148H135.617L135.977 29.964L137.897 29.076C138.433 29.076 138.897 29.276 139.289 29.676C139.689 30.068 139.889 30.644 139.889 31.404V36ZM146.708 32.94H142.712C142.712 33.564 142.808 34.02 143 34.308C143.2 34.596 143.596 34.74 144.188 34.74C144.572 34.74 144.856 34.62 145.04 34.38C145.224 34.132 145.316 33.896 145.316 33.672H146.72C146.72 34.528 146.488 35.156 146.024 35.556C145.568 35.956 144.96 36.156 144.2 36.156C143.448 36.156 142.864 36.048 142.448 35.832C141.592 35.392 141.164 34.224 141.164 32.328C141.164 31.2 141.408 30.376 141.896 29.856C142.384 29.328 143.128 29.064 144.128 29.064C145.864 29.064 146.732 30.028 146.732 31.956C146.732 32.164 146.724 32.492 146.708 32.94ZM142.748 31.872H145.316C145.316 31.344 145.216 30.96 145.016 30.72C144.816 30.48 144.508 30.36 144.092 30.36C143.684 30.36 143.356 30.484 143.108 30.732C142.868 30.972 142.748 31.352 142.748 31.872ZM151.902 29.172L151.47 30.708C151.35 30.66 151.214 30.636 151.062 30.636C150.662 30.636 150.17 30.808 149.586 31.152V36H148.026V29.148H149.19L149.55 29.748L151.206 29.064C151.286 29.056 151.394 29.052 151.53 29.052C151.666 29.052 151.79 29.092 151.902 29.172Z" fill="#FAFAFA"/>
</g>
</svg>
